# xmcd CD database file generated by Grip 3.1.2
# 
# Track frame offsets:
#       182
#       13557
#       25887
#       39002
#       51777
#       65827
#       78825
#       88762
#       104747
#       115402
#       128262
#       139637
#       151237
#       162087
#       174822
#       186982
# 
# Disc length: 2621 seconds
# 
# Revision: 1
# Processed by: cddbd v1.4PL0 Copyright (c) Steve Scherf et al.
# Submitted via: Grip 3.1.2
# 
DISCID=c10a3b10
DTITLE=Howlin' Wolf - Portrait in Blues - Disc 1
DYEAR=1900
DGENRE=Blues
TTITLE0=Moanin' at midnight
TTITLE1=How many more years
TTITLE2=Evil (is going on)
TTITLE3=Forty four
TTITLE4=Smokestack Lightnin'
TTITLE5=I asked for water (she gave me gasoline)
TTITLE6=The Natchez burnin'
TTITLE7=Blue bird
TTITLE8=Who's been talking
TTITLE9=Walk to Camp Hall
TTITLE10=Sittin' on top of the world
TTITLE11=Howling for my darling
TTITLE12=Wang dang doodle
TTITLE13=Back door man
TTITLE14=Spoonful
TTITLE15=Down in the bottom
EXTD=
EXTT0=
EXTT1=
EXTT2=
EXTT3=
EXTT4=
EXTT5=
EXTT6=
EXTT7=
EXTT8=
EXTT9=
EXTT10=
EXTT11=
EXTT12=
EXTT13=
EXTT14=
EXTT15=
PLAYORDER=
